<mxfile host="app.diagrams.net" modified="2024-05-24T15:10:31.361Z" agent="Mozilla/5.0 (Windows NT 10.0; Win64; x64) AppleWebKit/537.36 (KHTML, like Gecko) Chrome/125.0.0.0 Safari/537.36" version="24.4.8" etag="RKvpeAN6uDGudqj0G1Rg" type="github">
  <diagram name="페이지-1" id="R7-_3s4uiIrLnVIU8-Wy">
    <mxGraphModel>
      <root>
        <mxCell id="0" />
        <mxCell id="1" parent="0" />
      </root>
    </mxGraphModel>
  </diagram>
</mxfile>
